<?xml version="1.0" encoding="UTF-8"?>
<svg id="_Шар_2" data-name="Шар 2" xmlns="http://www.w3.org/2000/svg" viewBox="0 0 205.54 205.54">
  <defs>
    <style>
      .cls-1 {
        fill: #fff;
      }

      .cls-2 {
        fill: #fff0f3;
      }

      .cls-3 {
        fill: #ffb3c6;
      }
    </style>
  </defs>
  <g id="_Шар_1-2" data-name="Шар 1">
    <g id="ShortLogo2Icon">
      <circle class="cls-2" cx="102.77" cy="102.77" r="102.77"/>
      <g>
        <path class="cls-3" d="M161.99,122.26c1.53,1.84,2.31,4.46,2.35,7.99,.01,4.28-1.4,8.76-4.19,13.34-2.69,4.4-6.54,8.69-11.45,12.75-4.89,4.02-10.66,7.55-17.16,10.49-4.3,1.95-8.61,3.51-12.81,4.65-4.23,1.12-7.96,1.66-11.38,1.66h-.39c-3.81-.04-6.95-.92-9.33-2.6-.45-.32-.93-.72-1.39-1.21l-.04-.04c-.16-.14-.31-.29-.46-.46l-.04-.04c-.16-.14-.31-.29-.46-.46l-.04-.04c-.16-.14-.31-.29-.46-.46l-.04-.04c-.16-.14-.31-.29-.46-.46l-.04-.04c-.16-.14-.31-.29-.46-.46l-.04-.04c-.16-.14-.31-.29-.46-.46l-.04-.04c-.16-.14-.31-.29-.46-.46l-.04-.04c-.16-.14-.31-.29-.46-.46l-.04-.04c-1.56-1.43-3.1-3.84-3.2-7.76-.07-3.8,1.05-7.34,3.32-10.55,1.44-1.99,3.09-3.82,4.94-5.47-.15-.13-.29-.27-.4-.42-.18-.15-.36-.32-.5-.5-.07-.06-.14-.13-.21-.19-3.64,2.45-7.64,4.68-11.98,6.65-4.32,1.95-8.63,3.51-12.82,4.64-4.14,1.11-7.97,1.67-11.39,1.67h-.38c-3.8-.04-6.94-.91-9.32-2.58-.49-.35-1.01-.79-1.5-1.33-.17-.16-.34-.32-.5-.5-.17-.16-.34-.32-.5-.5-.17-.16-.34-.32-.5-.5-.17-.16-.34-.32-.5-.5-.17-.16-.34-.32-.5-.5-.17-.16-.34-.32-.5-.5-.17-.16-.34-.32-.5-.5-.17-.16-.34-.32-.5-.5-1.55-1.45-3.04-3.83-3.14-7.7-.07-3.82,1.05-7.36,3.33-10.55,1.41-1.98,3.07-3.8,4.95-5.47-.16-.14-.3-.29-.43-.44-.18-.15-.35-.32-.5-.5-.18-.15-.35-.32-.5-.5-1.33-1.16-2.03-2.92-2.08-5.26,.04-2.19,.78-4.26,2.18-6.24,.55-.8,1.19-1.58,1.9-2.37-.45-.38-.89-.78-1.3-1.21-.17-.17-.34-.33-.5-.5-.17-.17-.34-.33-.5-.5-.17-.17-.34-.33-.5-.5-.17-.17-.34-.33-.5-.5-.17-.17-.34-.33-.5-.5-.17-.17-.34-.33-.5-.5-.17-.17-.34-.33-.5-.5-.17-.17-.34-.33-.5-.5-.37-.36-.72-.72-1.05-1.11-2.32-2.74-3.49-6.03-3.51-9.78-.03-3.61,1.07-7.49,3.28-11.54,2.12-3.91,5.42-7.79,9.8-11.55,4.29-3.7,9.85-7.1,16.53-10.12,3.43-1.55,6.2-3.17,8.23-4.81,2.03-1.65,3.69-3.3,4.93-4.92,1.34-1.76,2.51-3.43,3.48-4.97,1.12-1.81,2.4-3.49,3.8-4.96,1.51-1.59,3.48-2.94,5.88-4.03,2.34-1.07,4.57-1.3,6.6-.69,1.59,.48,2.91,1.34,3.97,2.53,.17,.17,.34,.33,.5,.5,.17,.17,.34,.33,.5,.5,.17,.17,.34,.33,.5,.5,.17,.17,.34,.33,.5,.5,.17,.17,.34,.33,.5,.5,.17,.17,.34,.33,.5,.5,.17,.17,.34,.33,.5,.5,.17,.17,.34,.33,.5,.5,.48,.46,.93,.97,1.31,1.55,1.09,1.66,1.65,3.55,1.69,5.63,.02,2.12-.63,4.18-1.93,6.15-.91,1.37-2.19,2.57-3.8,3.59,.19,.18,.4,.35,.58,.54,.05,.06,.09,.12,.14,.17,.12,.11,.25,.21,.36,.33,.05,.06,.09,.12,.14,.17,.12,.11,.25,.21,.36,.33,.05,.06,.09,.12,.14,.17,.12,.11,.25,.21,.36,.33,.05,.06,.09,.12,.14,.17,.12,.11,.25,.21,.36,.33,.05,.06,.09,.12,.14,.17,.12,.11,.25,.21,.36,.33,.05,.06,.09,.12,.14,.17,.12,.11,.25,.21,.36,.33,.05,.06,.09,.12,.14,.17,.12,.11,.25,.21,.36,.33,.05,.06,.09,.12,.14,.17,.12,.11,.25,.21,.36,.33,.05,.06,.09,.12,.14,.17,.12,.11,.25,.21,.36,.33,2.65,2.8,4.03,6.28,4.09,10.35,.02,1.86-.27,3.77-.85,5.73,.3-.14,.59-.28,.89-.42,3.46-1.56,6.23-3.18,8.24-4.8,2.01-1.63,3.67-3.29,4.94-4.93,1.33-1.75,2.5-3.42,3.47-4.96,1.13-1.82,2.41-3.49,3.79-4.95,1.51-1.6,3.5-2.97,5.9-4.05,2.36-1.07,4.59-1.3,6.61-.68,1.47,.44,2.72,1.21,3.76,2.31,.03,.02,.06,.05,.09,.09,.14,.12,.28,.26,.41,.41,.03,.02,.06,.05,.09,.09,.14,.12,.28,.26,.41,.41,.03,.02,.06,.05,.09,.09,.14,.12,.28,.26,.41,.41,.03,.02,.06,.05,.09,.09,.14,.12,.28,.26,.41,.41,.03,.02,.06,.05,.09,.09,.14,.12,.28,.26,.41,.41,.03,.02,.06,.05,.09,.09,.14,.12,.28,.26,.41,.41,.03,.02,.06,.05,.09,.09,.14,.12,.28,.26,.41,.41,.03,.02,.06,.05,.09,.09,.14,.12,.28,.26,.41,.41,.03,.02,.06,.05,.09,.09,.52,.48,.99,1.03,1.41,1.66,1.1,1.7,1.67,3.6,1.69,5.66,.02,2.11-.63,4.16-1.91,6.13-.93,1.38-2.2,2.58-3.8,3.58,.13,.11,.26,.24,.38,.38,.06,.04,.12,.1,.17,.16,.02,.02,.04,.04,.05,.06,.1,.08,.19,.17,.28,.28,.06,.04,.12,.1,.17,.16,.02,.02,.04,.04,.05,.06,.1,.08,.19,.17,.28,.28,.06,.04,.12,.1,.17,.16,.02,.02,.04,.04,.05,.06,.1,.08,.19,.17,.28,.28,.06,.04,.12,.1,.17,.16,.02,.02,.04,.04,.05,.06,.1,.08,.19,.17,.28,.28,.06,.04,.12,.1,.17,.16,.02,.02,.04,.04,.05,.06,.1,.08,.19,.17,.28,.28,.06,.04,.12,.1,.17,.16,.02,.02,.04,.04,.05,.06,.1,.08,.19,.17,.28,.28,.06,.04,.12,.1,.17,.16,.02,.02,.04,.04,.05,.06,.1,.08,.19,.17,.28,.28,.06,.04,.12,.1,.17,.16,.02,.02,.04,.04,.05,.06,.1,.08,.19,.17,.28,.28,.06,.04,.12,.1,.17,.16,.02,.02,.04,.04,.05,.06,.15,.13,.3,.29,.45,.44,2.66,2.82,4.04,6.31,4.1,10.36,.04,3.65-1.09,7.54-3.35,11.56-2.22,3.93-5.53,7.82-9.85,11.55,2.15,.37,3.96,1.33,5.36,2.86,.18,.16,.35,.32,.5,.5,.18,.16,.35,.32,.5,.5,.18,.16,.35,.32,.5,.5,.18,.16,.35,.32,.5,.5,.18,.16,.35,.32,.5,.5,.18,.16,.35,.32,.5,.5,.18,.16,.35,.32,.5,.5,.18,.16,.35,.32,.5,.5,.32,.29,.62,.61,.9,.95Z"/>
        <path class="cls-1" d="M151,116.85c-1.88-.27-3.96-.15-6.24,.35-2.28,.51-4.54,1.2-6.77,2.05-2.22,.87-4.28,1.71-6.15,2.56-2.1,.95-3.73,1.37-4.87,1.25-1.13-.11-1.63-.59-1.48-1.41,.05-.54,.43-1.16,1.12-1.85,.71-.7,1.74-1.35,3.1-1.97,6.4-2.89,11.69-6.14,15.86-9.76,4.18-3.6,7.27-7.24,9.33-10.9,2.05-3.65,3.06-7.09,3.03-10.3-.05-3.42-1.19-6.31-3.42-8.67-2.23-2.36-5.44-3.86-9.62-4.51-2.15-.3-2.28-.89-.35-1.76l3.54-1.6c2.24-1.02,3.87-2.3,4.9-3.84,1.02-1.56,1.52-3.13,1.51-4.73-.02-1.6-.45-3.03-1.28-4.31-.84-1.27-1.96-2.12-3.41-2.55-1.42-.44-3.05-.25-4.85,.57-2.11,.95-3.81,2.11-5.1,3.48-1.29,1.37-2.45,2.89-3.5,4.57-1.04,1.66-2.25,3.38-3.61,5.16-1.37,1.77-3.15,3.56-5.34,5.34-2.19,1.77-5.11,3.48-8.78,5.14-6.47,2.93-11.78,6.17-15.93,9.74-3.57,3.06-6.34,6.16-8.32,9.31-.33,.52-.63,1.03-.91,1.55-2,3.67-2.99,7.12-2.97,10.32,.01,3.15,.98,5.87,2.91,8.17,1.96,2.31,4.75,3.87,8.42,4.68,.22,.06,.42,.12,.59,.19,1.13,.45,1.13,1.17,.01,2.12-1.83,1.59-3.32,3.17-4.43,4.76-1.11,1.59-1.68,3.17-1.72,4.76,.03,1.72,.49,2.91,1.39,3.58,.91,.68,2.07,1.08,3.47,1.19,.94,.1,1.45,.27,1.51,.49,.06,.24-.27,.62-.98,1.17-2.89,2.06-5.32,4.48-7.3,7.23-1.96,2.77-2.92,5.79-2.86,9.05,.07,2.96,1.1,5.14,3.07,6.53,1.97,1.39,4.61,2.1,7.92,2.14,3.32,.04,7.01-.5,11.08-1.58,4.07-1.1,8.22-2.6,12.44-4.51,6.35-2.87,11.87-6.25,16.59-10.14,4.72-3.9,8.35-7.93,10.91-12.13,2.56-4.19,3.84-8.19,3.83-12-.04-2.91-.64-5.06-1.79-6.44-1.14-1.39-2.67-2.22-4.55-2.49Zm-32.76-14.92c.07-1.17,.27-2.36,.6-3.57,.12-.46,.26-.92,.42-1.38,.58-1.68,1.39-3.22,2.4-4.62,1.02-1.4,2.21-2.41,3.57-3.03,.52-.23,1-.4,1.44-.48h.01c.7-.16,1.3-.13,1.81,.08h.01c.26,.11,.49,.26,.7,.46,.16,.14,.3,.31,.42,.51,.02,.02,.03,.05,.05,.07,.09,.15,.18,.31,.26,.48,.09,.18,.17,.36,.25,.56,.39,1.01,.55,2.19,.5,3.54,0,.08-.01,.16-.01,.24-.01,.17-.02,.34-.04,.52,0,.05,0,.1-.02,.15h0c-.03,.26-.06,.52-.1,.78-.17,1.01-.43,2.03-.79,3.08h0c-.34,1.03-.78,2.06-1.31,3.11-.87,1.74-1.92,3.08-3.16,4.03-.17,.15-.35,.28-.53,.39-.15,.11-.31,.2-.46,.29-.13,.07-.26,.14-.39,.2-.1,.06-.2,.1-.3,.15h0c-.06,.03-.12,.06-.18,.08-1.31,.56-2.37,.65-3.16,.26-.18-.09-.34-.2-.49-.34-.16-.13-.29-.29-.42-.47-.03-.05-.06-.09-.09-.14-.2-.31-.37-.65-.51-1.02-.22-.56-.37-1.19-.44-1.89-.07-.63-.08-1.31-.03-2.04Zm-1.5,51.81c-.71-5.99-1.7-7.23-7.38-9.27,5.99-.71,7.23-1.7,9.27-7.38,.7,5.99,1.69,7.24,7.38,9.27-5.99,.72-7.24,1.7-9.27,7.38Z"/>
        <path class="cls-1" d="M107.13,58.43c-2.23-2.37-5.44-3.87-9.63-4.52-2.15-.3-2.27-.89-.34-1.76l3.54-1.6c2.24-1.02,3.87-2.3,4.89-3.84,1.02-1.55,1.53-3.12,1.52-4.73-.03-1.6-.45-3.03-1.28-4.3-.84-1.28-1.97-2.12-3.41-2.56-1.43-.43-3.05-.25-4.85,.57-2.11,.96-3.81,2.12-5.1,3.48-1.3,1.37-2.46,2.89-3.5,4.57-1.04,1.66-2.25,3.38-3.61,5.16-1.37,1.78-3.15,3.56-5.34,5.34-2.19,1.77-5.11,3.49-8.78,5.15-6.47,2.92-11.78,6.16-15.93,9.74-4.15,3.56-7.23,7.17-9.23,10.85-2.01,3.68-3,7.12-2.97,10.33,.01,3.14,.97,5.87,2.91,8.17,1.95,2.3,4.75,3.87,8.41,4.67,1.7,.44,1.9,1.22,.6,2.32-1.83,1.58-3.31,3.16-4.42,4.76-1.12,1.58-1.69,3.17-1.72,4.75,.03,1.72,.49,2.91,1.39,3.58,.91,.68,2.07,1.08,3.46,1.19,.95,.11,1.45,.27,1.51,.49,.07,.24-.26,.63-.98,1.17-2.88,2.07-5.32,4.48-7.29,7.24-1.97,2.76-2.92,5.78-2.86,9.04,.07,2.97,1.1,5.15,3.07,6.54,1.97,1.38,4.61,2.09,7.92,2.13,3.32,.04,7.01-.49,11.08-1.58,4.06-1.1,8.21-2.6,12.44-4.51,6.18-2.8,11.6-6.08,16.24-9.86,.29-.62,.65-1.23,1.07-1.84,.56-.79,1.2-1.59,1.92-2.38-.35-.27-.67-.57-.97-.88-.12-.11-.23-.22-.34-.34-.18-.15-.35-.32-.5-.5-.18-.15-.35-.32-.5-.5-.18-.15-.35-.32-.5-.5-.18-.15-.35-.32-.5-.5-.18-.15-.35-.32-.5-.5-.18-.15-.35-.32-.5-.5-.18-.15-.35-.32-.5-.5-.18-.15-.35-.32-.5-.5-.37-.34-.72-.71-1.05-1.1-2.32-2.76-3.49-6.05-3.51-9.78,0-.16,0-.32,.01-.48,.06-3.23,1.02-6.67,2.84-10.22-.08,.02-.15,.05-.23,.08-2.23,.87-4.28,1.72-6.15,2.56-2.1,.95-3.73,1.37-4.87,1.26-1.14-.12-1.63-.6-1.48-1.42,.04-.54,.42-1.16,1.12-1.85,.7-.7,1.74-1.35,3.1-1.96,6.4-2.9,11.69-6.15,15.86-9.77,4.17-3.6,7.27-7.24,9.32-10.89,2.06-3.66,3.06-7.1,3.04-10.3-.05-3.42-1.19-6.32-3.42-8.67Zm-28.5,68.15c-5.99,.72-7.24,1.7-9.27,7.39-.71-6-1.7-7.24-7.38-9.27,5.99-.72,7.23-1.71,9.27-7.39,.7,6,1.69,7.24,7.38,9.27Zm4.66-51.57c-.01,.17-.02,.34-.04,.52-.01,.05-.01,.1-.02,.15h0c-.03,.26-.06,.52-.1,.78-.17,1.01-.43,2.03-.79,3.08h0c-.34,1.03-.78,2.06-1.31,3.11-.87,1.74-1.92,3.08-3.16,4.03-.17,.15-.35,.28-.53,.39-.15,.11-.31,.2-.46,.29-.13,.07-.26,.14-.39,.2-.1,.06-.2,.1-.3,.15h0c-.06,.03-.12,.06-.18,.08-1.31,.56-2.37,.65-3.16,.26-.18-.09-.34-.2-.49-.34-.16-.13-.29-.29-.42-.47-.03-.05-.06-.09-.09-.14-.2-.31-.37-.65-.51-1.02-.22-.56-.37-1.19-.44-1.89-.07-.63-.08-1.31-.03-2.04,.07-1.17,.27-2.36,.6-3.57,.12-.46,.26-.92,.42-1.38,.58-1.68,1.39-3.22,2.4-4.62,1.02-1.4,2.21-2.41,3.57-3.03,.52-.23,1-.4,1.44-.48h.01c.7-.16,1.3-.13,1.81,.08h.01c.26,.11,.49,.26,.7,.46,.16,.14,.3,.31,.42,.51,.02,.02,.03,.05,.05,.07,.09,.15,.18,.31,.26,.48,.09,.18,.17,.36,.25,.56,.39,1.01,.55,2.19,.5,3.54,0,.08-.01,.16-.01,.24Z"/>
      </g>
    </g>
  </g>
</svg>